<svg width="1011" height="728" viewBox="0 0 1011 728" fill="none" xmlns="http://www.w3.org/2000/svg">
<g clip-path="url(#clip0_3_14)">
<path d="M1010.89 727.284C958.803 719.655 908.709 713.078 860.61 707.554L879.63 676.776C873.218 674.882 845.045 692.428 845.045 692.428L870.012 602.948C837.764 606.055 821.355 697.461 821.355 697.461L785.33 666.365L802.768 701.219C655.555 686.023 528.417 680.054 421.478 679.365L437.757 653.023C431.345 651.129 403.172 668.674 403.172 668.674L428.139 579.194C395.891 582.301 379.482 673.707 379.482 673.707L343.457 642.611L361.926 679.527C272.275 680.614 199.166 685.399 142.736 690.978C159.203 649.9 215.129 611.018 215.129 611.018C172.421 621.454 150.017 639.17 138.309 655.728C137.414 604.91 143.435 510.728 188.165 406.633C188.165 406.633 99.8691 567.042 111.117 675.041L112.461 694.216C37.625 702.841 0 712 0 712L1010.89 727.284Z" fill="#726667"/>
<path d="M537.527 29.1301V677.33C537.519 685.052 534.447 692.454 528.985 697.913C523.523 703.371 516.118 706.438 508.397 706.44H245.246C241.421 706.447 237.632 705.699 234.096 704.238C230.56 702.778 227.347 700.634 224.641 697.93C221.935 695.226 219.789 692.014 218.326 688.479C216.863 684.944 216.112 681.156 216.116 677.33V29.1301C216.116 25.3046 216.869 21.5165 218.333 17.9821C219.797 14.4477 221.943 11.2363 224.648 8.5313C227.353 5.82627 230.564 3.68058 234.099 2.21678C237.633 0.752973 241.421 -0.00026858 245.246 6.24018e-05H284.626V5.05006C284.626 11.4111 287.152 17.512 291.649 22.0109C296.146 26.5098 302.245 29.0382 308.606 29.0401H442.446C447.567 29.051 452.554 27.4097 456.666 24.3601C457.498 23.7553 458.286 23.0937 459.027 22.3801C461.369 20.1431 463.233 17.4535 464.505 14.4746C465.777 11.4956 466.431 8.28925 466.426 5.05006V6.24018e-05H508.397C512.222 -0.00110963 516.011 0.751562 519.545 2.21507C523.08 3.67857 526.292 5.82422 528.997 8.52943C531.702 11.2346 533.848 14.4464 535.311 17.9811C536.775 21.5158 537.528 25.3043 537.527 29.1301Z" fill="#030404"/>
<path d="M289.427 115C293.293 115 296.427 111.866 296.427 108C296.427 104.134 293.293 101 289.427 101C285.561 101 282.427 104.134 282.427 108C282.427 111.866 285.561 115 289.427 115Z" fill="#F2F2F2"/>
<path d="M459.026 22.3801C458.286 23.0937 457.498 23.7553 456.666 24.3601C465.24 39.4469 476.854 52.5876 490.774 62.9489C504.693 73.3103 520.614 80.6662 537.526 84.5501V81.4301C521.071 77.5482 505.599 70.2964 492.087 60.1328C478.576 49.9691 467.319 37.1143 459.026 22.3801Z" fill="#D99129"/>
<path d="M399.216 29.04H395.936C407.58 58.626 426.785 84.6379 451.632 104.476C476.479 124.315 506.097 137.285 537.526 142.09V138.99C506.915 134.236 478.067 121.6 453.818 102.322C429.568 83.0452 410.751 57.7905 399.216 29.04V29.04Z" fill="#D99129"/>
<path d="M338.796 29.04H335.636C362.066 120.78 441.816 189.07 537.526 200.16V197.11C443.476 186.07 365.096 119.08 338.796 29.04Z" fill="#D99129"/>
<path d="M266.426 159.822H264.604V158H264.249V159.822H262.426V160.178H264.249V162H264.604V160.178H266.426V159.822Z" fill="#F2F2F2"/>
<path d="M389.426 68.822H387.604V67H387.249V68.822H385.426V69.178H387.249V71H387.604V69.178H389.426V68.822Z" fill="#F2F2F2"/>
<path d="M284.426 231.822H282.604V230H282.249V231.822H280.426V232.178H282.249V234H282.604V232.178H284.426V231.822Z" fill="#F2F2F2"/>
<path d="M368.426 178.822H366.604V177H366.249V178.822H364.426V179.178H366.249V181H366.604V179.178H368.426V178.822Z" fill="#F2F2F2"/>
<path d="M488.426 211.822H486.604V210H486.249V211.822H484.426V212.178H486.249V214H486.604V212.178H488.426V211.822Z" fill="#F2F2F2"/>
<path d="M467.426 129C469.636 129 471.426 127.209 471.426 125C471.426 122.791 469.636 121 467.426 121C465.217 121 463.426 122.791 463.426 125C463.426 127.209 465.217 129 467.426 129Z" fill="#EFE0D8"/>
<path d="M324.126 218.8L321.856 219.15C322.566 223.69 323.126 228.33 323.536 232.92L325.826 232.72C325.416 228.07 324.846 223.39 324.126 218.8Z" fill="#E6E6E6"/>
<path d="M317.916 191.46L315.716 192.13C317.046 196.53 318.236 201.04 319.246 205.53L321.496 205.02C320.466 200.48 319.256 195.92 317.916 191.46Z" fill="#E6E6E6"/>
<path d="M308.007 165.24L305.917 166.2C307.837 170.39 309.637 174.69 311.267 178.99L313.417 178.18C311.767 173.83 309.957 169.47 308.007 165.24Z" fill="#E6E6E6"/>
<path d="M294.607 140.66L292.667 141.89C295.137 145.77 297.507 149.79 299.707 153.82L301.727 152.72C299.507 148.64 297.107 144.58 294.607 140.66Z" fill="#E6E6E6"/>
<path d="M277.947 118.13L276.197 119.62C279.177 123.12 282.077 126.78 284.817 130.48L286.657 129.11C283.896 125.37 280.966 121.67 277.947 118.13Z" fill="#E6E6E6"/>
<path d="M258.366 98.0701L256.836 99.7801C260.276 102.85 263.646 106.08 266.856 109.37L268.506 107.76C265.256 104.43 261.846 101.17 258.366 98.0701Z" fill="#E6E6E6"/>
<path d="M236.246 80.85L234.956 82.75C238.776 85.32 242.556 88.06 246.186 90.89L247.606 89.0799C243.926 86.22 240.106 83.4501 236.246 80.85Z" fill="#E6E6E6"/>
<path d="M216.116 68.8901V71.4901C218.506 72.7401 220.876 74.0501 223.196 75.3901L224.346 73.4001C221.646 71.84 218.903 70.3367 216.116 68.8901Z" fill="#E6E6E6"/>
<path d="M323.607 434.803C323.98 432.567 324.321 430.284 324.621 428.018L326.901 428.32C326.597 430.612 326.252 432.919 325.875 435.181L323.607 434.803Z" fill="#E6E6E6"/>
<path d="M317.198 461.782L319.395 462.467C320.774 458.023 322.022 453.471 323.103 448.935L320.863 448.406C319.792 452.892 318.566 457.387 317.198 461.782Z" fill="#E6E6E6"/>
<path d="M307.156 487.614L309.243 488.592C311.226 484.384 313.083 480.048 314.767 475.708L312.621 474.871C310.957 479.164 309.12 483.453 307.156 487.614Z" fill="#E6E6E6"/>
<path d="M293.645 511.847L295.573 513.099C298.116 509.2 300.556 505.157 302.827 501.09L300.822 499.965C298.58 503.987 296.16 507.983 293.645 511.847Z" fill="#E6E6E6"/>
<path d="M276.928 533.986L278.671 535.496C281.73 531.968 284.696 528.298 287.507 524.586L285.666 523.209C282.894 526.878 279.958 530.503 276.928 533.986Z" fill="#E6E6E6"/>
<path d="M257.353 553.631L258.868 555.36C262.384 552.292 265.822 549.056 269.108 545.768L267.481 544.139C264.233 547.394 260.824 550.585 257.353 553.631Z" fill="#E6E6E6"/>
<path d="M235.3 570.422L236.571 572.345C240.453 569.781 244.309 567.049 248.009 564.233L246.618 562.397C242.954 565.19 239.146 567.891 235.3 570.422Z" fill="#E6E6E6"/>
<path d="M224.606 579.65C221.826 581.22 218.986 582.74 216.116 584.18V581.6C218.596 580.34 221.056 579.01 223.466 577.66L224.606 579.65Z" fill="#E6E6E6"/>
<path d="M324.281 247.106L326.58 247.064C326.622 249.385 326.625 251.718 326.589 254L324.291 253.964C324.326 251.709 324.323 249.401 324.281 247.106Z" fill="#E6E6E6"/>
<path d="M226.216 301.632H461.427C478.931 301.632 495.718 308.585 508.096 320.963C520.473 333.34 527.426 350.128 527.426 367.632V376.368H292.216C274.712 376.368 257.925 369.415 245.547 357.037C233.17 344.66 226.216 327.872 226.216 310.368V301.632V301.632Z" fill="white"/>
<path d="M382.316 705.521C382.087 705.146 376.676 696.111 374.8 677.35C373.079 660.137 374.185 631.123 389.232 590.651C417.738 513.98 382.663 452.118 382.304 451.502L384.035 450.498C384.126 450.654 393.177 466.427 398.523 491.542C405.588 524.839 403.015 559.461 391.107 591.349C362.65 667.889 383.806 704.122 384.023 704.479L382.316 705.521Z" fill="#F2F2F2"/>
<path d="M371.17 447C378.349 447 384.17 441.18 384.17 434C384.17 426.82 378.349 421 371.17 421C363.99 421 358.17 426.82 358.17 434C358.17 441.18 363.99 447 371.17 447Z" fill="#D99129"/>
<path d="M412.17 495C419.349 495 425.17 489.18 425.17 482C425.17 474.82 419.349 469 412.17 469C404.99 469 399.17 474.82 399.17 482C399.17 489.18 404.99 495 412.17 495Z" fill="#F2F2F2"/>
<path d="M384.17 527C391.349 527 397.17 521.18 397.17 514C397.17 506.82 391.349 501 384.17 501C376.99 501 371.17 506.82 371.17 514C371.17 521.18 376.99 527 384.17 527Z" fill="#D99129"/>
<path d="M418.17 554C425.349 554 431.17 548.18 431.17 541C431.17 533.82 425.349 528 418.17 528C410.99 528 405.17 533.82 405.17 541C405.17 548.18 410.99 554 418.17 554Z" fill="#D99129"/>
<path d="M374.17 596C381.349 596 387.17 590.18 387.17 583C387.17 575.82 381.349 570 374.17 570C366.99 570 361.17 575.82 361.17 583C361.17 590.18 366.99 596 374.17 596Z" fill="#F2F2F2"/>
<path d="M390.17 706C390.17 706 377.17 674 416.17 650L390.17 706Z" fill="#F2F2F2"/>
<path d="M374.182 705.42C374.182 705.42 368.265 671.39 322.473 671.682L374.182 705.42Z" fill="#F2F2F2"/>
<path opacity="0.2" d="M322.427 419C366.609 419 402.427 383.183 402.427 339C402.427 294.817 366.609 259 322.427 259C278.244 259 242.427 294.817 242.427 339C242.427 383.183 278.244 419 322.427 419Z" fill="#D99129"/>
<path opacity="0.2" d="M322.426 395.338C353.541 395.338 378.764 370.115 378.764 339C378.764 307.885 353.541 282.662 322.426 282.662C291.312 282.662 266.088 307.885 266.088 339C266.088 370.115 291.312 395.338 322.426 395.338Z" fill="#D99129"/>
<path d="M322.427 376.183C342.962 376.183 359.61 359.536 359.61 339C359.61 318.464 342.962 301.817 322.427 301.817C301.891 301.817 285.243 318.464 285.243 339C285.243 359.536 301.891 376.183 322.427 376.183Z" fill="#D99129"/>
<path d="M329.187 330.98C329.187 329.839 328.899 328.717 328.349 327.717C327.798 326.718 327.004 325.874 326.04 325.264C325.075 324.654 323.972 324.299 322.833 324.23C321.695 324.161 320.557 324.382 319.526 324.871C318.496 325.361 317.606 326.103 316.939 327.029C316.273 327.955 315.851 329.035 315.715 330.168C315.578 331.3 315.73 332.449 316.157 333.507C316.584 334.565 317.271 335.498 318.156 336.219L315.666 353.648H329.187L326.697 336.219C327.476 335.586 328.103 334.787 328.534 333.881C328.965 332.975 329.188 331.984 329.187 330.98V330.98Z" fill="white"/>
<path d="M696.107 53.3001C696.107 53.3001 673.805 33.3052 643.813 70.9878C613.821 108.67 566.91 127.127 556.143 141.739C556.143 141.739 600.747 123.282 616.128 115.592C631.509 107.901 630.74 109.44 630.74 109.44C630.74 109.44 609.976 124.051 606.13 138.663C602.285 153.274 605.361 165.579 598.44 180.191C591.519 194.802 730.714 190.188 730.714 190.188C730.714 190.188 744.556 166.348 740.711 141.739C736.866 117.13 739.173 56.3762 696.107 53.3001Z" fill="#030404"/>
<path d="M653.925 116.202C653.925 116.202 658.774 150.149 637.99 157.77C617.207 165.39 624.827 175.782 624.827 175.782L656.003 191.024L689.257 180.632L700.342 164.005C700.342 164.005 682.329 159.848 687.179 147.378C692.028 134.907 693.414 130.751 693.414 130.751L653.925 116.202Z" fill="#FFB9B9"/>
<path opacity="0.1" d="M653.925 116.202C653.925 116.202 658.774 150.149 637.99 157.77C617.207 165.39 624.827 175.782 624.827 175.782L656.003 191.024L689.257 180.632L700.342 164.005C700.342 164.005 682.329 159.848 687.179 147.378C692.028 134.907 693.414 130.751 693.414 130.751L653.925 116.202Z" fill="black"/>
<path d="M741.216 213.193C741.216 213.193 736.367 276.93 737.752 279.701C739.138 282.472 737.752 378.77 737.752 378.77C737.752 378.77 747.451 430.729 734.981 433.5C722.511 436.272 725.282 375.306 725.282 375.306L712.812 294.942L714.197 215.271L741.216 213.193Z" fill="#FFB9B9"/>
<path opacity="0.1" d="M741.216 213.193C741.216 213.193 736.367 276.93 737.752 279.701C739.138 282.472 737.752 378.77 737.752 378.77C737.752 378.77 747.451 430.729 734.981 433.5C722.511 436.272 725.282 375.306 725.282 375.306L712.812 294.942L714.197 215.271L741.216 213.193Z" fill="#EFE0D8"/>
<path d="M606.122 405.096C606.122 405.096 583.26 491.695 583.953 533.955C584.646 576.215 593.652 635.103 593.652 635.103C593.652 635.103 595.037 660.736 592.959 663.507C590.881 666.278 603.351 678.056 603.351 678.056L616.514 670.435L621.363 664.893V660.043C621.363 660.043 613.743 636.488 619.978 617.783C626.213 599.077 629.677 551.968 623.442 537.419L666.395 409.946L606.122 405.096Z" fill="#FFB9B9"/>
<path d="M604.737 666.971C604.737 666.971 596.423 656.579 590.881 660.043C585.338 663.507 576.332 687.062 576.332 687.062C576.332 687.062 545.156 716.852 567.326 718.238C589.495 719.623 599.194 712.002 601.965 706.46C604.737 700.918 630.37 686.369 630.37 686.369C630.37 686.369 627.599 660.043 623.442 659.35C619.285 658.657 613.05 669.742 613.05 669.742L604.737 666.971Z" fill="#030404"/>
<path d="M681.636 410.638V496.544C681.717 506.968 682.411 517.378 683.715 527.72C685.793 542.961 671.937 656.579 671.937 656.579L673.323 676.67L690.643 675.284L692.721 657.965L717.661 581.758C717.661 581.758 725.975 535.341 721.818 518.021C717.661 500.701 743.295 389.855 743.295 389.855L681.636 410.638Z" fill="#FFB9B9"/>
<path d="M667.78 671.821L672.911 670.705C672.911 670.705 676.787 662.121 681.636 664.2C685.049 665.774 688.282 667.711 691.279 669.978L693.414 673.899C693.414 673.899 698.263 684.291 704.498 691.219C710.733 698.147 717.661 713.388 707.27 714.774C696.878 716.159 683.022 716.852 678.865 713.388C674.708 709.924 677.48 704.382 673.323 702.996C669.166 701.61 665.702 697.454 666.395 696.068C667.088 694.683 667.78 671.821 667.78 671.821Z" fill="#030404"/>
<path d="M681.636 140.064C698.641 140.064 712.426 126.279 712.426 109.274C712.426 92.2693 698.641 78.484 681.636 78.484C664.631 78.484 650.846 92.2693 650.846 109.274C650.846 126.279 664.631 140.064 681.636 140.064Z" fill="#FFB9B9"/>
<path d="M623.442 163.312L632.593 160.117C632.593 160.117 628.984 166.083 648.382 169.547C667.78 173.011 687.87 174.237 696.877 162.886C696.877 162.886 700.342 161.234 705.191 166.083C710.041 170.933 712.812 169.547 712.812 169.547L709.348 187.56L702.42 220.814L693.414 245.754L667.78 240.212L640.069 220.121L629.677 193.102V168.161L623.442 163.312Z" fill="#D99129"/>
<path d="M707.962 173.011L714.89 168.161C714.89 168.161 738.445 172.318 739.831 183.403L721.818 218.042C725.492 227.681 725.243 238.375 721.125 247.832C714.197 263.767 714.89 267.231 714.89 267.231L710.041 288.014L622.056 294.942C622.056 294.942 618.592 286.629 617.207 285.243C615.821 283.858 615.821 279.008 617.207 279.008C618.592 279.008 617.207 276.93 615.821 274.851C614.436 272.773 613.743 272.08 615.821 269.309C617.9 266.538 612.357 241.597 612.357 241.597V214.578L588.802 183.403C588.802 183.403 597.116 170.933 601.273 169.547C605.429 168.161 625.203 162.697 625.203 162.697L629.677 169.285L635.912 219.428L644.918 249.911L682.839 243.468L697.57 218.735L707.27 189.638L707.962 173.011Z" fill="#D99129"/>
<path d="M734.288 179.246L739.831 183.403C739.831 183.403 744.68 222.199 743.295 224.97C741.909 227.741 717.661 230.513 716.969 229.127C716.276 227.741 734.288 179.246 734.288 179.246Z" fill="#D99129"/>
<path d="M619.978 159.848L626.906 205.572C626.906 205.572 620.671 273.466 622.056 287.321L623.442 291.478C623.442 291.478 620.671 290.093 619.978 292.864C619.285 295.635 619.978 304.641 619.978 304.641C619.978 304.641 615.821 308.798 614.435 331.66C613.05 354.522 596.423 409.253 602.658 411.331C608.893 413.409 646.304 423.801 666.395 421.723C686.486 419.645 758.536 395.397 757.843 389.162C757.15 382.927 722.511 294.942 722.511 294.942C722.511 294.942 716.276 284.55 716.276 283.165C716.276 281.779 724.589 276.237 722.511 270.694C720.433 265.152 709.348 206.958 709.348 206.958L716.969 165.39L706.577 162.619L698.956 202.801C698.956 202.801 669.166 217.35 637.99 204.187L631.063 157.077L619.978 159.848Z" fill="#030404"/>
<path d="M653.31 87.177C653.31 87.177 704.577 122.509 718.433 106.575C732.288 90.6409 694.185 76.7851 694.185 76.7851L662.317 73.3212L653.31 87.177Z" fill="#030404"/>
<path d="M573.655 463.042C578.932 466.97 585.46 468.839 592.016 468.298C598.572 467.757 604.706 464.843 609.267 460.104C613.829 455.364 616.505 449.123 616.795 442.551C617.084 435.98 614.967 429.528 610.84 424.405C606.713 419.283 600.859 415.841 594.376 414.726C587.893 413.61 581.226 414.898 575.624 418.346C570.022 421.795 565.871 427.169 563.947 433.459C562.024 439.75 562.461 446.526 565.176 452.518L494.47 511.39L485.055 500.217L480.825 503.046L476.118 497.459L479.986 494.2L475.278 488.613L469.262 493.683L472.159 497.121L465.712 502.552L462.816 499.114L453.361 507.08L457.706 512.237L461.144 509.34L465.852 514.927L461.554 518.548L470.244 528.862L459.93 537.553L470.431 550.015L573.655 463.042ZM591.309 423.55C594.833 423.851 598.188 425.19 600.951 427.398C603.714 429.606 605.759 432.584 606.83 435.955C607.9 439.325 607.947 442.938 606.964 446.335C605.981 449.733 604.013 452.762 601.309 455.041C598.604 457.32 595.284 458.745 591.77 459.138C588.255 459.53 584.703 458.871 581.562 457.244C578.422 455.618 575.835 453.096 574.127 449.999C572.42 446.902 571.669 443.368 571.97 439.844C572.374 435.119 574.638 430.747 578.265 427.692C581.892 424.636 586.584 423.146 591.309 423.55V423.55Z" fill="#D99129"/>
<path d="M583.953 221.506C583.953 221.506 588.802 285.243 587.417 288.014C586.031 290.785 587.417 387.083 587.417 387.083C587.417 387.083 577.718 439.043 590.188 441.814C602.658 444.585 599.887 383.619 599.887 383.619L612.357 303.256L610.972 223.585L583.953 221.506Z" fill="#FFB9B9"/>
<path d="M594.345 181.324L588.802 183.403C588.802 183.403 578.41 227.049 581.182 227.049C583.953 227.049 617.207 231.205 617.207 229.82C617.207 228.434 610.972 194.487 610.972 194.487L594.345 181.324Z" fill="#D99129"/>
</g>
<defs>
<clipPath id="clip0_3_14">
<rect width="1010.89" height="727.284" fill="white"/>
</clipPath>
</defs>
</svg>
