<svg width="894" height="378" viewBox="0 0 894 378" fill="none" xmlns="http://www.w3.org/2000/svg">
<rect x="14.7781" y="6" width="42.2232" height="300" rx="2" fill="#030404"/>
<path d="M162.741 17.9097C164.032 16.6086 166.235 17.5974 166.139 19.435L162.72 84.9036C162.694 85.3989 162.487 85.867 162.139 86.2178L55.053 194.141C54.275 194.925 53.0136 194.925 52.2356 194.141L21.4647 163.129C20.6867 162.345 20.6867 161.074 21.4647 160.29L162.741 17.9097Z" fill="#030404"/>
<rect width="31.7914" height="191.799" rx="2" transform="matrix(0.704349 -0.709854 0.704349 0.709854 22.1671 171.045)" fill="#030404"/>
<path d="M75.9568 172.976L84.4014 164.465L181.501 265.498C181.844 265.855 182.044 266.328 182.061 266.824L182.541 280.432C182.548 280.614 182.329 280.71 182.201 280.581L75.9568 172.976Z" fill="#E7F2B9"/>
<rect y="6" width="10.5558" height="300" rx="2" fill="#E7F2B9"/>
<path d="M159.909 3.57819C161.121 2.37086 163.191 3.14438 163.315 4.85089L163.844 12.1591C163.886 12.7383 163.674 13.3071 163.264 13.7178L11.8017 165.18C11.0207 165.961 9.75433 165.961 8.97328 165.18L4.73358 160.94C3.95138 160.158 3.9527 158.889 4.73651 158.109L159.909 3.57819Z" fill="#E7F2B9"/>
<path d="M225.844 178.75V307H199.828V154.844H225.141L225.844 178.75ZM273.375 154L273.234 178.188C271.078 177.719 269.016 177.438 267.047 177.344C265.172 177.156 263.016 177.062 260.578 177.062C254.578 177.062 249.281 178 244.688 179.875C240.094 181.75 236.203 184.375 233.016 187.75C229.828 191.125 227.297 195.156 225.422 199.844C223.641 204.438 222.469 209.5 221.906 215.031L214.594 219.25C214.594 210.062 215.484 201.438 217.266 193.375C219.141 185.312 222 178.188 225.844 172C229.688 165.719 234.562 160.844 240.469 157.375C246.469 153.812 253.594 152.031 261.844 152.031C263.719 152.031 265.875 152.266 268.312 152.734C270.75 153.109 272.438 153.531 273.375 154ZM342.703 291.25L385.031 154.844H412.875L351.844 330.484C350.438 334.234 348.562 338.266 346.219 342.578C343.969 346.984 341.062 351.156 337.5 355.094C333.938 359.031 329.625 362.219 324.562 364.656C319.594 367.188 313.641 368.453 306.703 368.453C304.641 368.453 302.016 368.172 298.828 367.609C295.641 367.047 293.391 366.578 292.078 366.203L291.938 345.109C292.688 345.203 293.859 345.297 295.453 345.391C297.141 345.578 298.312 345.672 298.969 345.672C304.875 345.672 309.891 344.875 314.016 343.281C318.141 341.781 321.609 339.203 324.422 335.547C327.328 331.984 329.812 327.062 331.875 320.781L342.703 291.25ZM311.625 154.844L351.141 272.969L357.891 300.391L339.188 309.953L283.219 154.844H311.625ZM462.375 184.094V365.5H436.219V154.844H460.125L462.375 184.094ZM564.891 229.656V232.609C564.891 243.672 563.578 253.938 560.953 263.406C558.328 272.781 554.484 280.938 549.422 287.875C544.453 294.812 538.312 300.203 531 304.047C523.688 307.891 515.297 309.812 505.828 309.812C496.172 309.812 487.641 308.219 480.234 305.031C472.828 301.844 466.547 297.203 461.391 291.109C456.234 285.016 452.109 277.703 449.016 269.172C446.016 260.641 443.953 251.031 442.828 240.344V224.594C443.953 213.344 446.062 203.266 449.156 194.359C452.25 185.453 456.328 177.859 461.391 171.578C466.547 165.203 472.781 160.375 480.094 157.094C487.406 153.719 495.844 152.031 505.406 152.031C514.969 152.031 523.453 153.906 530.859 157.656C538.266 161.312 544.5 166.562 549.562 173.406C554.625 180.25 558.422 188.453 560.953 198.016C563.578 207.484 564.891 218.031 564.891 229.656ZM538.734 232.609V229.656C538.734 222.062 537.938 214.938 536.344 208.281C534.75 201.531 532.266 195.625 528.891 190.562C525.609 185.406 521.391 181.375 516.234 178.469C511.078 175.469 504.938 173.969 497.812 173.969C491.25 173.969 485.531 175.094 480.656 177.344C475.875 179.594 471.797 182.641 468.422 186.484C465.047 190.234 462.281 194.547 460.125 199.422C458.062 204.203 456.516 209.172 455.484 214.328V250.75C457.359 257.312 459.984 263.5 463.359 269.312C466.734 275.031 471.234 279.672 476.859 283.234C482.484 286.703 489.562 288.438 498.094 288.438C505.125 288.438 511.172 286.984 516.234 284.078C521.391 281.078 525.609 277 528.891 271.844C532.266 266.688 534.75 260.781 536.344 254.125C537.938 247.375 538.734 240.203 538.734 232.609ZM661.781 154.844V174.812H579.516V154.844H661.781ZM607.359 117.859H633.375V269.312C633.375 274.469 634.172 278.359 635.766 280.984C637.359 283.609 639.422 285.344 641.953 286.188C644.484 287.031 647.203 287.453 650.109 287.453C652.266 287.453 654.516 287.266 656.859 286.891C659.297 286.422 661.125 286.047 662.344 285.766L662.484 307C660.422 307.656 657.703 308.266 654.328 308.828C651.047 309.484 647.062 309.812 642.375 309.812C636 309.812 630.141 308.547 624.797 306.016C619.453 303.484 615.188 299.266 612 293.359C608.906 287.359 607.359 279.297 607.359 269.172V117.859ZM720.562 154.844V307H694.406V154.844H720.562ZM692.438 114.484C692.438 110.266 693.703 106.703 696.234 103.797C698.859 100.891 702.703 99.4375 707.766 99.4375C712.734 99.4375 716.531 100.891 719.156 103.797C721.875 106.703 723.234 110.266 723.234 114.484C723.234 118.516 721.875 121.984 719.156 124.891C716.531 127.703 712.734 129.109 707.766 129.109C702.703 129.109 698.859 127.703 696.234 124.891C693.703 121.984 692.438 118.516 692.438 114.484ZM823.219 288.438C829.406 288.438 835.125 287.172 840.375 284.641C845.625 282.109 849.938 278.641 853.312 274.234C856.688 269.734 858.609 264.625 859.078 258.906H883.828C883.359 267.906 880.312 276.297 874.688 284.078C869.156 291.766 861.891 298 852.891 302.781C843.891 307.469 834 309.812 823.219 309.812C811.781 309.812 801.797 307.797 793.266 303.766C784.828 299.734 777.797 294.203 772.172 287.172C766.641 280.141 762.469 272.078 759.656 262.984C756.938 253.797 755.578 244.094 755.578 233.875V227.969C755.578 217.75 756.938 208.094 759.656 199C762.469 189.812 766.641 181.703 772.172 174.672C777.797 167.641 784.828 162.109 793.266 158.078C801.797 154.047 811.781 152.031 823.219 152.031C835.125 152.031 845.531 154.469 854.438 159.344C863.344 164.125 870.328 170.688 875.391 179.031C880.547 187.281 883.359 196.656 883.828 207.156H859.078C858.609 200.875 856.828 195.203 853.734 190.141C850.734 185.078 846.609 181.047 841.359 178.047C836.203 174.953 830.156 173.406 823.219 173.406C815.25 173.406 808.547 175 803.109 178.188C797.766 181.281 793.5 185.5 790.312 190.844C787.219 196.094 784.969 201.953 783.562 208.422C782.25 214.797 781.594 221.312 781.594 227.969V233.875C781.594 240.531 782.25 247.094 783.562 253.562C784.875 260.031 787.078 265.891 790.172 271.141C793.359 276.391 797.625 280.609 802.969 283.797C808.406 286.891 815.156 288.438 823.219 288.438Z" fill="#E7F2B9"/>
</svg>
