<svg width="176" height="300" viewBox="0 0 176 300" fill="none" xmlns="http://www.w3.org/2000/svg">
<rect x="14.7781" width="42.2232" height="300" rx="2" fill="#030404"/>
<path d="M162.741 11.9097C164.032 10.6086 166.235 11.5974 166.139 13.435L162.72 78.9036C162.694 79.3989 162.487 79.867 162.139 80.2178L55.0531 188.141C54.2751 188.925 53.0137 188.925 52.2357 188.141L21.4647 157.129C20.6867 156.345 20.6867 155.074 21.4647 154.29L162.741 11.9097Z" fill="#030404"/>
<rect width="31.7914" height="183.36" rx="2" transform="matrix(0.704349 -0.709854 0.704349 0.709854 22.1672 165.045)" fill="#030404"/>
<path d="M75.9568 166.976L84.4015 158.465L174.667 252.608C175.026 252.982 175.226 253.482 175.226 254.003L175.226 267.067C175.226 267.246 175.011 267.335 174.886 267.208L75.9568 166.976Z" fill="#D99129"/>
<rect width="10.5558" height="300" rx="2" fill="#D99129"/>
</svg>
